<?xml version='1.0' encoding='iso-8859-1'?>
<svg version="1.1" xmlns="http://www.w3.org/2000/svg" viewBox="0 0 463 463" xmlns:xlink="http://www.w3.org/1999/xlink" enable-background="new 0 0 463 463">
  <g>
    <path d="m455.5,296.572h-89.248c0.005-0.069 0.015-0.137 0.018-0.206l45.484-18.84c3.827-1.585 5.644-5.973 4.059-9.799-1.585-3.827-5.973-5.643-9.799-4.059l-44.97,18.627c-5.963-12.514-13.656-24.038-22.889-34.271l40.451-40.452h75.424c3.174,0 6.004-1.998 7.067-4.988 1.28-3.602 1.903-7.041 1.903-10.512 0-17.369-14.131-31.5-31.5-31.5-3.237,0-6.412,0.51-9.494,1.521-5.865-6.048-13.908-9.521-22.506-9.521s-16.642,3.473-22.506,9.521c-3.082-1.012-6.256-1.521-9.494-1.521-17.369,0-31.5,14.131-31.5,31.5 0,3.471 0.623,6.91 1.903,10.512 1.063,2.99 3.893,4.988 7.067,4.988h12.424l-29.867,29.867c-4.269-3.838-8.775-7.45-13.524-10.793-6.608-4.651-13.544-8.681-20.727-12.116l18.628-44.973c1.585-3.827-0.232-8.214-4.059-9.799-3.826-1.584-8.214,0.232-9.799,4.059l-18.619,44.951c-12.934-4.581-26.517-7.266-40.427-7.98v-41.216h46.4c3.174,0 6.004-1.998 7.067-4.988 1.704-4.795 2.533-9.355 2.533-13.94 0-23.041-18.745-41.786-41.786-41.786-4.954,0-9.803,0.905-14.484,2.698-7.872-8.945-19.139-14.127-31.23-14.127s-23.358,5.182-31.23,14.127c-4.681-1.793-9.53-2.698-14.484-2.698-15.886,0-30.059,8.78-37.17,22.681-4.166-1.382-8.583-2.11-13.116-2.11-12.092,0-23.358,5.182-31.23,14.127-4.681-1.793-9.53-2.698-14.484-2.698-23.041-0.001-41.786,18.744-41.786,41.785 0,4.585 0.829,9.145 2.533,13.94 1.063,2.991 3.893,4.988 7.067,4.988h34.793l56.452,56.452c-9.234,10.233-16.926,21.757-22.889,34.272l-44.971-18.628c-3.827-1.585-8.214,0.232-9.799,4.059-1.585,3.827 0.232,8.214 4.059,9.799l45.471,18.835c0.003,0.071 0.014,0.14 0.018,0.211h-89.234c-4.142,0-7.5,3.358-7.5,7.5s3.358,7.5 7.5,7.5h448c4.142,0 7.5-3.358 7.5-7.5s-3.358-7.499-7.5-7.499zm-104.5-104.5c0-9.098 7.402-16.5 16.5-16.5 2.748,0 5.46,0.749 8.063,2.224 3.476,1.973 7.893,0.87 10.034-2.509 3.063-4.831 8.26-7.715 13.903-7.715s10.84,2.884 13.903,7.715c2.141,3.379 6.557,4.482 10.034,2.509 2.603-1.476 5.316-2.224 8.063-2.224 9.098,0 16.5,7.402 16.5,16.5 0,0.166-0.003,0.333-0.009,0.5h-96.981c-0.007-0.168-0.01-0.334-0.01-0.5zm-.086,104.5h-238.828c9.25-23.251 24.941-43.155 45.533-57.651 21.697-15.275 47.245-23.349 73.88-23.349 26.631,0 52.174,8.071 73.87,23.341 20.597,14.496 36.293,34.403 45.545,57.659zm-126.914-95.784c-13.909,0.714-27.493,3.399-40.427,7.98l-7.123-17.196h12.95c3.174,0 6.004-1.998 7.067-4.988 1.704-4.795 2.533-9.355 2.533-13.94 0-4.565-0.746-8.956-2.105-13.071h27.105v41.215zm-62.214-86.931c4.488,0 8.896,1.21 13.104,3.596 3.479,1.973 7.894,0.869 10.034-2.508 4.968-7.837 13.408-12.516 22.576-12.516s17.608,4.679 22.576,12.516c2.142,3.378 6.557,4.482 10.034,2.508 4.208-2.386 8.616-3.596 13.104-3.596 14.77,0 26.786,12.016 26.786,26.786 0,1.29-0.112,2.594-0.339,3.929h-91.521c-7.65-8.42-18.681-13.714-30.926-13.714-4.954,0-9.803,0.905-14.484,2.698-1.531-1.74-3.195-3.333-4.964-4.778 4.493-9.132 13.691-14.921 24.02-14.921zm-122.786,58.786c0-14.77 12.016-26.786 26.786-26.786 4.488,0 8.896,1.21 13.104,3.596 3.477,1.973 7.894,0.869 10.034-2.508 4.968-7.837 13.408-12.516 22.576-12.516s17.608,4.679 22.576,12.516c2.142,3.378 6.556,4.481 10.034,2.508 4.208-2.386 8.616-3.596 13.104-3.596 14.77,0 26.786,12.016 26.786,26.786 0,1.29-0.112,2.594-0.339,3.929h-144.322c-0.227-1.335-0.339-2.64-0.339-3.929zm121.214,18.929l9.51,22.958c-7.188,3.438-14.128,7.471-20.739,12.125-4.745,3.341-9.246,6.949-13.512,10.784l-45.867-45.867h70.608z"/>
    <path d="m311.5,328.572h-144c-4.142,0-7.5,3.358-7.5,7.5s3.358,7.5 7.5,7.5h144c4.142,0 7.5-3.358 7.5-7.5s-3.358-7.5-7.5-7.5z"/>
    <path d="m135.5,328.572h-64c-4.142,0-7.5,3.358-7.5,7.5s3.358,7.5 7.5,7.5h64c4.142,0 7.5-3.358 7.5-7.5s-3.357-7.5-7.5-7.5z"/>
    <path d="m359.5,328.572h-16c-4.142,0-7.5,3.358-7.5,7.5s3.358,7.5 7.5,7.5h16c4.142,0 7.5-3.358 7.5-7.5s-3.358-7.5-7.5-7.5z"/>
    <path d="m295.5,360.572h-79.999c-4.142,0-7.5,3.358-7.5,7.5s3.358,7.5 7.5,7.5h79.999c4.142,0 7.5-3.358 7.5-7.5s-3.358-7.5-7.5-7.5z"/>
    <path d="m183.501,360.572h-16.001c-4.142,0-7.5,3.358-7.5,7.5s3.358,7.5 7.5,7.5h16.001c4.142,0 7.5-3.358 7.5-7.5s-3.358-7.5-7.5-7.5z"/>
  </g>
</svg>
