<?xml version="1.0" encoding="iso-8859-1"?>
<!-- Generator: Adobe Illustrator 16.0.0, SVG Export Plug-In . SVG Version: 6.00 Build 0)  -->
<!DOCTYPE svg PUBLIC "-//W3C//DTD SVG 1.1//EN" "http://www.w3.org/Graphics/SVG/1.1/DTD/svg11.dtd">
<svg version="1.1" id="Capa_1" xmlns="http://www.w3.org/2000/svg" xmlns:xlink="http://www.w3.org/1999/xlink" x="0px" y="0px"
	 width="48px" height="48px" viewBox="0 0 48 48" style="enable-background:new 0 0 48 48;" xml:space="preserve">
<g>
	<g id="Suitcase">
		<path d="M32,11.125c-0.414,0-0.75-0.336-0.75-0.75V4.958c0-0.459-0.374-0.833-0.834-0.833H17.584c-0.46,0-0.834,0.374-0.834,0.833
			v5.417c0,0.414-0.336,0.75-0.75,0.75s-0.75-0.336-0.75-0.75V4.958c0-1.286,1.047-2.333,2.334-2.333h12.832
			c1.287,0,2.334,1.047,2.334,2.333v5.417C32.75,10.789,32.414,11.125,32,11.125z"/>
		<path d="M29.062,10.67c-0.276,0-0.5-0.224-0.5-0.5V6.883c0-0.2-0.043-0.278-0.054-0.289l-8.916-0.015
			c-0.014-0.034-0.031,0.063-0.031,0.303v3.288c0,0.276-0.224,0.5-0.5,0.5s-0.5-0.224-0.5-0.5V6.883c0-0.322,0-1.303,1.031-1.303
			h8.817c0.557,0,1.15,0.342,1.15,1.303v3.288C29.562,10.447,29.339,10.67,29.062,10.67z"/>
		<g>
			<path d="M7.917,45.375C0.899,45.375,0,41.457,0,38.043V16.957c0-3.53,0.896-7.582,7.875-7.582c0.553,0,1,0.448,1,1s-0.447,1-1,1
				C2.961,11.375,2,13.422,2,16.957v21.086c0,3.377,0.968,5.332,5.917,5.332c0.553,0,1,0.448,1,1S8.47,45.375,7.917,45.375z"/>
			<path d="M36.125,45.375H12c-0.553,0-1-0.448-1-1s0.447-1,1-1h24.125c0.553,0,1,0.448,1,1S36.678,45.375,36.125,45.375z"/>
			<path d="M40.255,45.375c-0.553,0-1-0.448-1-1s0.447-1,1-1c4.829,0,5.745-1.874,5.745-5.332V16.957
				c0-3.473-0.387-5.582-5.745-5.582c-0.553,0-1-0.448-1-1s0.447-1,1-1c7.147,0,7.745,3.746,7.745,7.582v21.086
				C48,41.668,47.08,45.375,40.255,45.375z"/>
			<path d="M36.188,11.375H12c-0.553,0-1-0.448-1-1s0.447-1,1-1h24.188c0.554,0,1,0.448,1,1S36.74,11.375,36.188,11.375z"/>
			<rect x="8.125" y="9.375" width="3.667" height="35.979"/>
			<rect x="36.375" y="9.375" width="3.667" height="36"/>
		</g>
		<g>
			<g>
				<path style="stroke:#000000;stroke-linecap:round;stroke-linejoin:round;stroke-miterlimit:10;" d="M14.732,35.438"/>
				<path style="stroke:#000000;stroke-linecap:round;stroke-linejoin:round;stroke-miterlimit:10;" d="M18.004,34.492"/>
				<path d="M17.636,39.15c-0.103,0-0.206-0.031-0.295-0.096c-2.032-1.486-2.784-2.335-3.094-3.496
					c-0.263-0.996,0.33-2.363,1.519-2.703c0.562-0.164,1.154-0.098,1.668,0.186c0.515,0.283,0.888,0.749,1.051,1.312
					c0.076,0.266-0.076,0.541-0.342,0.619c-0.265,0.073-0.543-0.078-0.619-0.343c-0.088-0.307-0.291-0.56-0.571-0.714
					c-0.279-0.152-0.604-0.189-0.91-0.102c-0.629,0.181-0.967,0.961-0.828,1.485c0.206,0.773,0.699,1.472,2.717,2.945
					c0.223,0.163,0.271,0.476,0.108,0.698C17.941,39.079,17.789,39.15,17.636,39.15z"/>
			</g>
			<g>
				<path d="M18.086,39.296c-0.406,0-0.653-0.166-0.908-0.364c-0.218-0.171-0.257-0.484-0.087-0.703
					c0.17-0.219,0.486-0.256,0.702-0.086c0.203,0.158,0.233,0.154,0.318,0.152c0.309-0.027,0.51,0.202,0.521,0.479
					c0.013,0.275-0.201,0.509-0.477,0.521C18.132,39.295,18.109,39.296,18.086,39.296z"/>
			</g>
			<g>
				<path style="stroke:#000000;stroke-linecap:round;stroke-linejoin:round;stroke-miterlimit:10;" d="M21.321,35.232"/>
				<path style="stroke:#000000;stroke-linecap:round;stroke-linejoin:round;stroke-miterlimit:10;" d="M17.997,34.494"/>
				<path d="M18.623,39.119c-0.144,0-0.286-0.062-0.385-0.182c-0.177-0.211-0.147-0.527,0.065-0.703
					c1.921-1.596,2.371-2.323,2.529-3.109c0.105-0.531-0.281-1.288-0.92-1.428c-0.312-0.069-0.634-0.016-0.902,0.158
					c-0.27,0.17-0.456,0.437-0.525,0.748c-0.06,0.269-0.322,0.438-0.597,0.379c-0.27-0.06-0.439-0.326-0.38-0.597
					c0.127-0.573,0.471-1.061,0.966-1.375c0.494-0.313,1.082-0.416,1.654-0.29c1.207,0.266,1.885,1.594,1.685,2.603
					c-0.238,1.181-0.936,2.075-2.871,3.682C18.849,39.082,18.736,39.119,18.623,39.119z"/>
			</g>
			<g>
				<path d="M18.134,39.295c-0.271,0-0.494-0.217-0.5-0.488c-0.006-0.276,0.213-0.506,0.489-0.512
					c0.091-0.002,0.118-0.002,0.309-0.172c0.207-0.184,0.522-0.165,0.706,0.041c0.184,0.206,0.166,0.521-0.04,0.706
					c-0.255,0.228-0.502,0.415-0.953,0.425C18.142,39.295,18.138,39.295,18.134,39.295z"/>
			</g>
		</g>
		<path d="M30.99,21.973c-0.201,0-0.396-0.042-0.582-0.123l-4.836-2.127c-0.73-0.321-1.063-1.176-0.743-1.906l0.843-1.917
			c0.311-0.709,1.195-1.058,1.907-0.742l4.837,2.126c0.729,0.321,1.062,1.176,0.743,1.907l-0.843,1.917
			C32.084,21.633,31.564,21.973,30.99,21.973z M26.997,16.035c-0.179,0-0.338,0.104-0.409,0.267l-0.843,1.917
			c-0.101,0.226,0.004,0.49,0.229,0.589l4.836,2.127c0.224,0.097,0.492-0.012,0.59-0.23l0.843-1.916
			c0.1-0.226-0.005-0.491-0.229-0.59l-4.837-2.126C27.119,16.047,27.061,16.035,26.997,16.035z"/>
		<path d="M43.039,36.236c-0.463,0-0.919-0.281-1.188-0.735l-1.072-1.798c-0.393-0.659-0.254-1.467,0.31-1.801l3.563-2.122
			c0.547-0.326,1.348-0.056,1.73,0.587l1.071,1.799c0.392,0.66,0.251,1.467-0.31,1.801l-3.563,2.122
			C43.42,36.186,43.232,36.236,43.039,36.236z M45.193,30.52l-3.652,2.144c-0.122,0.071-0.148,0.338-0.001,0.586l1.071,1.799
			c0.16,0.269,0.402,0.349,0.517,0.281l3.563-2.122c0.121-0.072,0.146-0.339,0-0.588l-1.07-1.799
			C45.497,30.614,45.312,30.52,45.193,30.52z"/>
		<path d="M5.904,29.676c-0.095,0-0.188-0.027-0.271-0.08l-5.08-3.277c-0.152-0.098-0.239-0.27-0.229-0.449
			c0.011-0.18,0.117-0.342,0.279-0.42l5.618-2.746c0.161-0.08,0.354-0.065,0.505,0.038c0.148,0.103,0.229,0.279,0.213,0.459
			l-0.537,6.017c-0.014,0.176-0.119,0.33-0.277,0.408C6.056,29.659,5.979,29.676,5.904,29.676z M1.839,25.958l3.636,2.345
			l0.384-4.31L1.839,25.958z"/>
	</g>
	<g>
	</g>
	<g>
	</g>
	<g>
	</g>
	<g>
	</g>
	<g>
	</g>
	<g>
	</g>
	<g>
	</g>
	<g>
	</g>
	<g>
	</g>
	<g>
	</g>
	<g>
	</g>
	<g>
	</g>
	<g>
	</g>
	<g>
	</g>
	<g>
	</g>
</g>
<g>
</g>
<g>
</g>
<g>
</g>
<g>
</g>
<g>
</g>
<g>
</g>
<g>
</g>
<g>
</g>
<g>
</g>
<g>
</g>
<g>
</g>
<g>
</g>
<g>
</g>
<g>
</g>
<g>
</g>
</svg>
