<svg xmlns="http://www.w3.org/2000/svg" width="1000" height="1000" viewBox="0 0 1000 1000"><style>.a{fill:#828282;}</style><circle cx="501.8" cy="500.8" r="169" class="a"/><path d="M297.9 294.6c54.8-54.8 127.6-85.3 205.1-85.3 77.5 0 150.3 30.7 205.1 85.4 34.8 34.8 59.6 76.5 73.1 123.2H999V125.2C999 56.6 945.9 3.5 877.3 3.5H131.4C62.7 3.5 4.5 56.6 4.5 125.2v292.7h220.3C238.3 371.3 263.2 329.3 297.9 294.6zM916.1 219c0 18.3-14.8 33.2-33.1 33.2h-99.4c-18.3 0-33.1-14.8-33.1-33.1v-99.5c0-18.3 14.8-33.1 33.2-33.1h99.4c18.3 0 33.1 14.8 33.1 33.1V219z" class="a"/><path d="M708.1 704.8c-54.8 54.8-127.6 84.6-205.1 84.6 -77.5 0-150.3-29.7-205.1-84.5 -54.7-54.7-84.8-129.1-85-204.2H4.5v370.3C4.5 939.8 62.7 998 131.4 998h745.9C945.9 998 999 939.8 999 871.1V500.8H793.1C793 575.9 762.8 650.1 708.1 704.8z" class="a"/></svg>