<?xml version="1.0" encoding="utf-8"?>
<!-- Generator: Adobe Illustrator 16.0.4, SVG Export Plug-In . SVG Version: 6.00 Build 0)  -->
<!DOCTYPE svg PUBLIC "-//W3C//DTD SVG 1.1//EN" "http://www.w3.org/Graphics/SVG/1.1/DTD/svg11.dtd">
<svg version="1.1" id="Layer_1" xmlns="http://www.w3.org/2000/svg" xmlns:xlink="http://www.w3.org/1999/xlink" x="0px" y="0px"
	 width="1000px" height="1000px" viewBox="0 0 1000 1000" enable-background="new 0 0 1000 1000" xml:space="preserve">
<g>
	<circle fill="#828282" cx="501.75" cy="500.75" r="168.959"/>
</g>
<g>
	<path fill="#828282" d="M297.942,294.563c54.786-54.784,127.625-85.28,205.104-85.28c77.478,0,150.316,30.657,205.104,85.442
		c34.76,34.761,59.594,76.533,73.114,123.15H999V125.223C999,56.567,945.933,3.5,877.276,3.5H131.403
		C62.746,3.5,4.5,56.567,4.5,125.223v292.653h220.323C238.347,371.258,263.18,329.326,297.942,294.563z M916.124,218.975
		c0,18.308-14.841,33.15-33.149,33.15h-99.449c-18.306,0-33.15-14.84-33.15-33.15v-99.451c0-18.307,14.842-33.149,33.15-33.149
		h99.449c18.309,0,33.149,14.839,33.149,33.149V218.975z"/>
	<path fill="#828282" d="M708.149,704.775c-54.787,54.787-127.626,84.633-205.104,84.633c-77.479,0-150.318-29.686-205.104-84.471
		c-54.685-54.686-84.841-129.082-84.954-204.188H4.5v370.349C4.5,939.752,62.746,998,131.403,998h745.874
		C945.933,998,999,939.752,999,871.099V500.75H793.104C792.991,575.855,762.833,650.092,708.149,704.775z"/>
</g>
</svg>
