<?xml version="1.0" encoding="iso-8859-1"?>
<!-- Generator: Adobe Illustrator 18.0.0, SVG Export Plug-In . SVG Version: 6.00 Build 0)  -->
<!DOCTYPE svg PUBLIC "-//W3C//DTD SVG 1.1//EN" "http://www.w3.org/Graphics/SVG/1.1/DTD/svg11.dtd">
<svg version="1.1" id="Capa_1" xmlns="http://www.w3.org/2000/svg" xmlns:xlink="http://www.w3.org/1999/xlink" x="0px" y="0px"
	 viewBox="0 0 321.734 321.734" style="enable-background:new 0 0 321.734 321.734;" xml:space="preserve">
<path d="M301.994,142.406c0-4.082,2.028-28.597-11.021-40.644c-0.773-11.513-9.247-21.121-20.529-23.3
	c-2.023-1.85-4.152-3.705-6.365-5.543c-1.666-10.979-10.596-19.687-21.536-21.33c-2.907-0.436-5.887-0.366-8.767,0.223
	c-6.839-4.029-14.05-7.864-21.504-11.423c-5.343-6.777-13.903-10.446-22.45-9.639c-6.537-2.517-13.303-4.846-20.168-6.954
	c-2.4-6.935-7.797-12.607-14.607-15.34c-6.375-2.559-13.641-2.41-19.904,0.409c-3.576,1.609-6.773,4.04-9.264,7.069
	c-5.12-12.63-19.827-19.184-32.606-14.327c-3.438,1.307-6.592,3.354-9.184,5.963C71.881,2.026,57.068,7.192,50.914,19.068
	c-13.601,5.337-25.995,15.153-29.995,29.763c-0.836,3.054-1.252,6.211-1.291,9.374c-0.013,1.054,0.038,95.435,0.038,95.435
	l0.001,19.771c0.001,5.21,0.011,16.276,0.011,16.276c0.006,6.159-0.272,12.359,1.05,18.415c1.177,5.39,3.221,10.569,5.783,15.446
	c5.374,10.23,12.856,19.265,21.07,27.333c16.692,16.398,36.705,29.322,57.562,39.767c21.892,10.964,45.178,19.339,69.056,24.758
	c23.397,5.31,48.023,8.099,71.942,5.092c20.041-2.519,43.821-9.872,53.077-29.692c0.197-0.422,0.406-0.953,0.616-1.545
	c1.466-4.12,2.158-8.477,2.158-12.85V142.406z M120.834,31.253c5.422,0,10.544,2.952,13.32,7.598
	c-3.655,4.003-5.92,9.087-6.549,14.408c-3.839-3.698-8.799-6.165-14.169-6.929c-1.483-2.847-3.483-5.405-5.912-7.512
	C110.269,34.19,115.267,31.253,120.834,31.253z M291.362,126.569c-4.086-1.512-8.209-1.986-12.544-1.341
	c3.748-2.285,6.802-5.482,8.924-9.247C289.688,117.809,291.522,123.476,291.362,126.569z M247.632,140.161
	c-0.512-7.046-3.885-13.421-9.059-17.823c2.926-6.203,9.757-9.82,16.533-8.686c6.739,1.128,12.109,6.654,12.851,13.478
	c0.427,3.924-0.642,7.972-3.012,11.137C259.113,136.848,252.959,137.551,247.632,140.161z M131.479,113.588
	c0.782-3.606,2.82-6.836,5.851-9.097c3.241-2.117,6.73-3.334,10.655-2.997c3.839,0.329,7.434,2.148,10.033,4.984
	c-5.934,5.792-8.543,14.24-7.191,22.393c-1.629-0.288-3.284-0.421-4.943-0.392C143.411,121.738,138.147,116.291,131.479,113.588z
	 M98.817,103.161c-1.506-6.297,1.229-13.148,6.682-16.65c5.937-3.813,13.927-3.05,19.047,1.792c2.732,2.584,4.432,6.129,4.76,9.874
	c-3.941,3.625-6.609,8.352-7.676,13.554c-1.803,0.019-3.586,0.233-5.329,0.631C111.962,107.107,105.643,103.758,98.817,103.161z
	 M72.233,76.751c3.34-2.644,7.701-3.811,11.969-3.187c4.885,0.715,9.15,3.831,11.434,8.188c-3,3.099-5.125,6.891-6.268,10.959
	c-4.832-4.503-11.319-7.054-17.931-6.961c-0.013-2.449-0.383-4.887-1.091-7.221C71.896,76.793,71.559,77.285,72.233,76.751z
	 M116.355,57.49c2.036,0.943,3.863,2.328,5.323,4.032c3.511,4.1,4.548,9.755,2.883,14.876c-6.475-2.987-14.053-3.063-20.624-0.309
	c-2.16-3.695-5.218-6.818-8.883-9.031c1.939-6.44,8.018-11.211,14.736-11.005C109.874,56.056,114.229,56.505,116.355,57.49z
	 M215.349,96.786c2.894,2.023,5.043,4.94,6.066,8.326c1.011,3.347,0.754,6.66-0.323,9.943c-0.153,0.409-0.347,0.802-0.535,1.197
	c-6.796,0.376-13.179,3.423-17.721,8.346c-0.498-0.123-0.988-0.267-1.468-0.438c-0.145-7.708-3.777-14.723-9.498-19.355
	c3.066-9.505,15.005-13.704,23.336-8.111C215.254,96.726,215.302,96.756,215.349,96.786z M179.548,109.568
	c5.774,1.407,10.375,6.315,11.545,12.123c1.212,6.018-1.524,12.33-6.553,15.785c-5.727,3.934-13.651,3.314-18.87-1.203
	c-5.557-4.809-6.769-13.335-3.048-19.657C165.813,111.194,173.093,107.995,179.548,109.568z M149.376,74.025
	c-2.055,5.639-2.031,11.916-0.038,17.548c-3.671-0.399-7.384,0.003-10.873,1.179c-1.039-3.785-2.934-7.274-5.574-10.21
	c2.335-4.9,3.061-10.469,2.037-15.818c5.529-2.49,12.211-1.338,16.7,2.706C151.565,69.527,149.918,72.537,149.376,74.025z
	 M206.567,145.855c-1.337-5.398,0.239-11.318,4.348-15.227c4.552-4.33,11.521-5.675,17.292-3.102
	c5.177,2.309,8.91,7.437,9.441,13.09c0.552,5.873-2.488,11.752-7.457,14.878c-5.653,3.557-13.12,2.893-18.237-1.174
	C211.266,153.773,207.493,149.592,206.567,145.855z M240.258,106.643c-3.432,1.912-6.404,4.607-8.643,7.839
	c1.628-8.375-1.122-17.255-7.385-23.294c4.739-7.313,14.789-9.243,21.922-4.251c-1.777,2.087-3.224,4.445-4.256,7.009
	C240.275,97.972,239.725,102.357,240.258,106.643z M217.248,63.345c-4.106,6.617-4.995,14.827-2.326,22.161
	c-5.256-1.777-11.04-1.782-16.307-0.046c0.525-5.214-0.58-10.492-3.161-15.055c2.111-4.625,6.451-7.938,11.35-8.858
	c1.673-0.314,3.411-0.349,5.148-0.062C213.842,61.776,215.623,62.414,217.248,63.345z M188.758,82.92
	c0,6.095-3.858,11.888-9.459,14.279c-6.419,2.739-14.302,0.591-18.462-5.008c-3.845-5.173-4.054-12.567-0.443-17.917
	c3.672-5.441,10.74-8.078,17.07-6.275C183.974,69.853,188.758,76.143,188.758,82.92z M170.444,37.661
	c0.218-0.986,0.364-1.988,0.464-2.993c1.742,0.563,3.479,1.135,5.202,1.726c-1.295,1.058-2.485,2.24-3.553,3.534
	C171.901,39.129,171.194,38.375,170.444,37.661z M164.838,46.275c2.633,3.224,3.918,7.448,3.424,11.673
	c-3.527,0.719-6.854,2.176-9.765,4.234c-5.653-5.173-13.491-7.62-21.076-6.499c0.201-5.711,3.582-11.098,8.787-13.536
	c4.975-2.331,11.176-1.948,15.622,1.315C163.254,44.507,163.975,45.218,164.838,46.275z M101.964,47.309
	c-7.677,2.519-13.819,8.665-16.316,16.352c-3.033-0.448-6.142-0.345-9.14,0.296c-1.384-3.417-1.551-7.32-0.362-10.832
	c1.797-4.351,4.698-7.84,9.212-9.547c4.375-1.655,9.388-1.207,13.403,1.189C99.944,45.473,101.018,46.332,101.964,47.309z
	 M65.414,69.416c-4.48-5.279-11.006-8.561-17.921-8.972c-0.454-5.347,2-10.755,6.3-13.959c4.373-3.258,10.29-3.825,15.273-1.663
	c-0.851,1.398-1.574,2.87-2.135,4.396c-2.502,5.778-2.003,13.023,0.393,18.727C66.663,68.404,66.027,68.896,65.414,69.416z
	 M32.478,61.332c-1.606-4.124-1.379-8.819,0.682-12.807c2.447-4.733,7.23-7.838,12.529-8.274
	c-5.861,5.464-8.969,13.583-8.123,21.564c-1.375,0.478-2.703,1.08-3.979,1.789C32.567,61.891,32.782,62.112,32.478,61.332z
	 M36.941,73.285c7.745-5.519,19.112-2.624,23.138,6.205c1.076,2.786,1.638,5.576,1.217,8.573c-4.935,2.275-9.067,6.11-11.68,10.877
	c-7.083-7.719-12.354-15.352-15.732-22.759C34.472,75.451,36.566,73.552,36.941,73.285z M68.269,96.176
	c7.13-1.672,14.992,2.126,17.96,9.104c-6.27,2.779-11.104,7.927-13.476,14.258c-5.666-4.225-10.872-8.565-15.571-12.976
	c1.177-3.756,3.705-6.89,7.186-8.851C65.242,97.212,66.931,96.49,68.269,96.176z M94.296,113.233
	c4.424-0.656,8.994,0.641,12.412,3.563c-5.889,4.407-9.494,11.145-10.13,18.266c-5.275-3.013-10.353-6.156-15.18-9.404
	c1.127-6.042,5.744-10.908,11.922-12.247C94.1,113.242,93.97,113.281,94.296,113.233z M111.853,125.481
	c4.863-4.216,12.075-4.941,17.678-1.775c2.804,1.584,5.086,4.046,6.453,6.962c-7.078,3.189-12.41,9.527-14.324,17.059
	c-5.037-2.236-9.988-4.619-14.815-7.107C105.441,134.309,107.591,129.177,111.853,125.481z M140.407,139.638
	c6.042-2.531,13.256-0.843,17.586,4.086c4.346,4.947,5.051,12.23,1.79,17.953c-9.766-2.849-19.26-6.336-28.751-9.975
	c0.754-5.088,4.029-9.573,8.778-11.799C140.867,139.405,140.206,139.722,140.407,139.638z M172.114,163.157
	c0.483-5.948,4.403-11.24,10.096-13.307c5.9-2.143,12.668-0.533,16.846,4.199c3.625,4.105,4.424,12.406,2.743,16.388
	c-9.688-1.178-19.655-3.012-29.725-5.469C171.94,161.342,172.066,163.755,172.114,163.157z M213.9,166.566
	c6.466,2.087,13.59,1.581,19.664-1.512c0.17,2.281,0.641,4.544,1.415,6.718c-7.237,0.383-14.912,0.271-22.947-0.331
	c0.482-1.694,0.782-3.438,0.898-5.209C215.788,167.28,213.575,166.461,213.9,166.566z M248.841,151.232
	c5.879-5.006,14.94-4.8,20.594,0.435c2.981,2.76,4.757,6.659,4.924,10.714c-7.646,4.126-17.321,6.965-28.844,8.455
	C241.978,164.705,243.242,155.998,248.841,151.232z M274.093,142.571c1.285-2.055,2.249-4.277,2.906-6.584
	c5.166-1.945,11.175-1.019,15.507,2.383c-0.807,6.846-4.077,12.98-9.105,17.659C281.875,150.634,278.611,145.912,274.093,142.571z
	 M274.583,116.052c-4.963-8.497-14.721-13.426-24.513-12.487c-0.044-7.302,5.183-13.821,12.357-15.289
	c5.954-1.219,12.195,1.243,15.725,6.176c1.872,2.616,2.893,5.794,2.902,9.011C281.053,108.547,278.569,113.192,274.583,116.052z
	 M253.962,80.336c-8.454-7.352-21.044-8.248-30.471-2.198c-0.484-6.11,2.659-12.115,8.09-15.017
	c4.81-2.57,10.714-2.359,15.365,0.467c2.539,1.543,4.617,3.806,5.906,6.486C253.705,71.846,254.766,76.907,253.962,80.336z
	 M207.001,51.431c-7.416,0.789-14.272,4.907-18.512,11.058c-3.001-2.249-6.496-3.83-10.175-4.565
	c0.171-2.472-0.015-4.97-0.551-7.373c1.988-5.15,6.711-8.935,12.169-9.754c4.764-0.714,9.699,0.886,13.087,4.225
	C204.938,46.913,206.53,49.946,207.001,51.431z M148.764,16.966c6.928,1.415,12.225,7.762,12.285,15.022
	c-6.129-2.06-12.882-1.739-18.779,0.952c-2.448-3.817-5.866-6.895-9.912-8.933C134.739,20.171,139.938,15.163,148.764,16.966z
	 M102.755,9.978c6.688,0.266,12.75,4.938,14.464,11.543c-7.739,1.095-14.479,5.659-18.377,12.346
	c-3.313-1.099-6.84-1.486-10.315-1.177c-2.408-4.588-2.359-10.296,0.184-14.819c2.003-3.563,5.443-6.223,9.353-7.334
	C98.955,10.284,102.108,9.953,102.755,9.978z M60.856,21.915c3.872-5.472,11.093-7.957,17.657-5.767
	c-2.425,6.245-2.293,13.279,0.332,19.421c-0.928,0.496-1.824,1.057-2.69,1.669c-4.871-2.96-10.661-4.221-16.334-3.537
	c-0.529-0.313-1.07-0.604-1.62-0.878C57.555,26.342,60.207,22.832,60.856,21.915z M266.398,305.616
	c-9.141,3.373-18.932,4.964-28.621,5.661c-21.408,1.541-43.12-1.286-63.936-6.218c-21.233-5.031-41.948-12.47-61.559-22.036
	c-18.842-9.191-36.989-20.427-52.603-34.489c-7.485-6.741-14.461-14.156-20.071-22.548c-5.617-8.402-9.863-17.787-9.91-28.045
	c-0.013-2.754,0.007-108.504,0.007-108.504c8.219,13.16,19.549,24.279,31.615,33.914c12.552,10.023,26.251,18.574,40.507,25.95
	c8.271,4.28,16.752,8.122,25.372,11.641c0,0,2.382,0.95,3.386,1.343c21.106,8.262,43.149,14.367,65.605,17.511
	c22.137,3.099,45.606,3.776,67.298-2.394c10.485-2.982,20.868-7.836,28.507-15.798v115.303c0,4.657-1.227,9.276-3.791,13.163
	c-0.018,0.027-0.036,0.055-0.054,0.082C284.996,294.893,274.774,302.526,266.398,305.616z"/>
<g>
</g>
<g>
</g>
<g>
</g>
<g>
</g>
<g>
</g>
<g>
</g>
<g>
</g>
<g>
</g>
<g>
</g>
<g>
</g>
<g>
</g>
<g>
</g>
<g>
</g>
<g>
</g>
<g>
</g>
</svg>
