<?xml version="1.0" encoding="iso-8859-1"?>
<!-- Generator: Adobe Illustrator 18.0.0, SVG Export Plug-In . SVG Version: 6.00 Build 0)  -->
<!DOCTYPE svg PUBLIC "-//W3C//DTD SVG 1.1//EN" "http://www.w3.org/Graphics/SVG/1.1/DTD/svg11.dtd">
<svg version="1.1" id="Capa_1" xmlns="http://www.w3.org/2000/svg" xmlns:xlink="http://www.w3.org/1999/xlink" x="0px" y="0px"
	 viewBox="0 0 403 403" style="enable-background:new 0 0 403 403;" xml:space="preserve">
<g>
	<path d="M402.8,293.241c-0.317-1.088-8.063-27.041-34.45-61.634c-24.183-31.704-69.364-76.96-147.274-112.517
		c-24.072-10.987-47.388-18.423-69.295-22.102c-54.214-9.132-90.632,6.004-111.635,20.308l-0.034,0.023
		C12.446,136.161,0,161.012,0,172.639c0,4.209,1.775,8.146,5.134,11.388c3.796,3.662,9.905,6.658,18.255,8.973l26.796,49.344
		c5.423,10,14.42,17.274,25.336,20.483l145.201,42.66c7.528,2.212,15.231,3.3,22.894,3.3c15.69,0,31.199-4.566,44.607-13.412
		l43.151-28.448c3.313,1.618,6.617,3.254,9.905,4.914c31.853,16.086,54.284,27.172,54.507,27.281
		c0.703,0.348,1.46,0.518,2.214,0.518c1.152,0,2.294-0.397,3.213-1.168C402.732,297.197,403.355,295.145,402.8,293.241z
		 M184.882,151.686c-11.958,16.95-21.062,35.216-24.977,50.114c-6.513,24.785,3.784,61.145,9.503,78.188l-53.82-15.813l-15.98-63.69
		c-1.334-5.318-1.31-10.937,0.07-16.245c4.091-15.741,16.379-46.463,52.699-76.989c17.92,3.214,36.844,9.033,56.4,17.349
		C201.458,130.65,193.017,140.155,184.882,151.686z M111.855,110.527c0.925,0.748,2.037,1.112,3.142,1.112
		c1.457,0,2.902-0.634,3.89-1.855l4.471-5.526c5.115,0.109,10.455,0.47,16.007,1.092c-4.235,3.857-8.133,7.708-11.703,11.526
		c-21.914-4.666-39.383-5.943-52.73-5.662c10.167-3.401,21.989-5.914,35.564-6.717C109.525,106.535,110.023,109.043,111.855,110.527
		z M10,172.639c0-7.88,10.384-29.629,35.364-46.791c2.989-1.193,26.55-9.585,74.675-0.317C101.057,148.49,93.207,169.38,90,181.725
		c-0.59,2.271-0.971,4.587-1.181,6.917c-0.204,0.009-16.03,0.548-33.613-0.778c-29.915-2.256-39.861-7.881-43.128-11.033
		C10.215,175.034,10,173.577,10,172.639z M58.974,237.574l-22.717-41.831c5.461,0.887,11.517,1.589,18.196,2.093
		c17.24,1.299,32.446,0.875,34.509,0.808c0.034,0.002,0.082,0.004,0.125,0.007c0.207,1.434,0.468,2.861,0.822,4.27l14.549,57.987
		l-26.118-7.674C69.998,250.78,63.12,245.22,58.974,237.574z M282.717,287.026c-17.497,11.543-39.068,14.772-59.177,8.867
		l-42.3-12.428c-3.552-9.677-16.861-48.422-12.614-74.583c43.639,8.56,98.922,27.863,152.232,52.998L282.717,287.026z
		 M345.786,262.914c-60.794-30.704-124.057-53.758-174.673-63.733c4.207-12.762,12.014-27.661,21.94-41.73
		c1.788-2.535,3.607-4.976,5.428-7.306c31.407,13.092,65.22,30.608,100.644,52.151c2.354,1.432,5.423,0.704,6.867-1.642l0,0
		c1.45-2.357,0.709-5.453-1.655-6.892c-34.788-21.158-68.088-38.507-99.151-51.657c5.183-5.803,10.09-10.312,14.055-12.836
		c1.507,0.697,3.02,1.394,4.501,2.098l-3.851,3.351c-2.062,1.795-2.498,4.951-0.773,7.072c0.994,1.223,2.435,1.85,3.885,1.85
		c1.164,0,2.333-0.404,3.28-1.229l7.195-6.26c6.687,3.374,13.099,6.813,19.246,10.302l-2.373,2.763
		c-1.787,2.08-1.695,5.41,0.378,7.205c0.946,0.819,2.11,1.219,3.27,1.219c1.407,0,2.807-0.591,3.795-1.742l3.718-4.328
		c49.104,29.436,80.111,61.588,98.54,85.646c15.083,19.692,23.91,36.63,28.611,47.205
		C379.011,279.614,363.93,272.076,345.786,262.914z"/>
	<path d="M66.048,137.602c2.189-1.684,2.599-4.822,0.915-7.012c-1.683-2.189-4.823-2.599-7.011-0.914
		c-13.388,10.298-31.2,33.961-31.952,34.963c-1.657,2.209-1.209,5.343,1,7c0.899,0.675,1.952,1,2.996,1c1.52,0,3.021-0.69,4.004-2
		C36.176,170.405,53.746,147.066,66.048,137.602z"/>
	<path d="M64.264,175.824c0.844,0.552,1.793,0.816,2.731,0.816c1.631,0,3.23-0.798,4.19-2.265
		c4.594-7.027,17.829-26.247,23.815-30.736c2.209-1.657,2.657-4.791,1-7c-1.657-2.209-4.791-2.657-7-1
		c-8.459,6.345-24.396,30.527-26.185,33.264C61.304,171.214,61.953,174.313,64.264,175.824z"/>
	<path d="M213.736,161.454c-2.312-1.512-5.41-0.863-6.921,1.448l-17,26c-1.511,2.312-0.862,5.41,1.449,6.921
		c0.844,0.552,1.793,0.816,2.731,0.816c1.631,0,3.23-0.798,4.19-2.265l17-26C216.696,166.064,216.047,162.965,213.736,161.454z"/>
	<path d="M239.707,178.729c-2.318-1.5-5.414-0.837-6.914,1.482l-11,17c-1.5,2.318-0.837,5.413,1.481,6.914
		c0.839,0.543,1.781,0.803,2.711,0.803c1.64,0,3.246-0.806,4.203-2.285l11-17C242.688,183.325,242.025,180.23,239.707,178.729z"/>
</g>
<g>
</g>
<g>
</g>
<g>
</g>
<g>
</g>
<g>
</g>
<g>
</g>
<g>
</g>
<g>
</g>
<g>
</g>
<g>
</g>
<g>
</g>
<g>
</g>
<g>
</g>
<g>
</g>
<g>
</g>
</svg>
