<?xml version="1.0" encoding="iso-8859-1"?>
<!-- Generator: Adobe Illustrator 19.0.0, SVG Export Plug-In . SVG Version: 6.00 Build 0)  -->
<svg version="1.1" id="Layer_1" xmlns="http://www.w3.org/2000/svg" xmlns:xlink="http://www.w3.org/1999/xlink" x="0px" y="0px"
	 viewBox="0 0 512 512" style="enable-background:new 0 0 512 512;" xml:space="preserve">
<g>
	<g>
		<g>
			<path d="M29.642,253.305h75.453c4.465,0,8.084-3.618,8.084-8.084c0-4.466-3.62-8.084-8.084-8.084H29.642
				c-7.43,0-13.474-6.044-13.474-13.474s6.044-13.474,13.474-13.474h105.634c4.465,0,8.084-3.618,8.084-8.084
				c0-4.466-3.62-8.084-8.084-8.084H29.642C13.297,194.021,0,207.319,0,223.663S13.297,253.305,29.642,253.305z"/>
			<path d="M288.337,495.832H40.421c-7.43,0-13.474-6.044-13.474-13.474v-5.389c0-28.231,19.835-51.2,44.216-51.2
				c16.915,0,32.106,10.931,39.642,28.528c1.527,3.567,5.37,5.545,9.162,4.714c2.737-0.6,5.512-0.904,8.25-0.904
				c14.807,0,28.569,8.551,36.813,22.874c2.226,3.869,7.167,5.201,11.04,2.974c3.87-2.227,5.201-7.169,2.973-11.039
				c-11.165-19.398-30.165-30.978-50.826-30.978c-1.769,0-3.545,0.088-5.32,0.264C112.062,422.207,92.343,409.6,71.164,409.6
				c-33.296,0-60.385,30.221-60.385,67.368v5.389c0,4.848,1.171,9.429,3.242,13.474H8.084C3.62,495.832,0,499.45,0,503.916
				C0,508.382,3.62,512,8.084,512h280.253c4.466,0,8.084-3.618,8.084-8.084C296.421,499.45,292.803,495.832,288.337,495.832z"/>
			<path d="M327.633,47.417c3.863-2.238,5.183-7.183,2.944-11.047c-1.207-2.084-1.818-4.347-1.818-6.727
				c0-7.43,6.044-13.474,13.474-13.474h140.126c7.43,0,13.474,6.044,13.474,13.474c0,7.43-6.044,13.474-13.474,13.474h-49.763
				c-4.466,0-8.084,3.619-8.084,8.084s3.619,8.084,8.084,8.084h49.763c16.344,0,29.642-13.298,29.642-29.642
				C512,13.298,498.702,0,482.358,0H342.232c-16.344,0-29.642,13.298-29.642,29.642c0,5.188,1.382,10.315,3.996,14.831
				C318.822,48.337,323.766,49.656,327.633,47.417z"/>
			<path d="M318.045,452.84c1.345-27.269,23.805-48.629,51.134-48.629c3.248,0,6.537,0.318,9.78,0.944
				c3.593,0.697,7.208-1.111,8.807-4.406c8.647-17.81,26.305-28.875,46.086-28.875c22.669,0,42.897,15.191,49.191,36.941
				c1.24,4.289,5.726,6.765,10.013,5.518c4.289-1.241,6.759-5.724,5.518-10.013c-6.993-24.172-27.061-42.188-51.095-47.206
				l-38.958-65.74c-2.275-3.841-7.234-5.11-11.075-2.834c-3.841,2.275-5.109,7.235-2.834,11.075l33.392,56.349
				c-21.365,1.895-40.832,14.063-51.912,32.437c-2.306-0.239-4.616-0.359-6.911-0.359c-28.867,0-53.607,18.119-63.159,43.833
				C293.434,417.948,275.327,409.6,256,409.6s-37.434,8.348-50.02,22.275c-9.551-25.713-34.291-43.833-63.159-43.833
				c-2.296,0-4.606,0.12-6.911,0.359c-11.081-18.374-30.548-30.542-51.912-32.437l99.161-167.332H204.8v35.032
				c0,16.344,13.297,29.642,29.642,29.642c16.345,0,29.642-13.298,29.642-29.642v-35.032h38.445c4.466,0,8.084-3.618,8.084-8.084
				c0-4.466-3.619-8.084-8.084-8.084H256c-4.465,0-8.084,3.619-8.084,8.084v43.116c0,7.43-6.044,13.474-13.474,13.474
				c-7.43,0-13.474-6.044-13.474-13.474v-43.116c0-4.466-3.62-8.084-8.084-8.084h-20.862c4.855-11.002,7.388-22.938,7.388-35.032
				c0-1.486,1.209-2.695,2.695-2.695h107.789c1.486,0,2.695,1.208,2.695,2.695c0,15.554,4.192,30.846,12.12,44.225l13.82,23.321
				c2.277,3.841,7.236,5.111,11.075,2.834c3.841-2.275,5.109-7.235,2.834-11.075l-13.82-23.322
				c-6.451-10.885-9.861-23.328-9.861-35.982c0-10.401-8.463-18.863-18.863-18.863H202.105c-10.401,0-18.863,8.463-18.863,18.863
				c0,12.654-3.409,25.097-9.861,35.983l-1.702,2.872c-0.059,0.097-0.117,0.194-0.174,0.292L64.552,357.064
				c-26.944,5.468-48.253,26.923-52.875,54.992c-0.725,4.405,2.258,8.565,6.664,9.29c4.4,0.717,8.565-2.258,9.29-6.664
				c4.084-24.806,25.329-42.81,50.517-42.81c19.781,0,37.441,11.065,46.086,28.875c1.6,3.295,5.209,5.103,8.807,4.406
				c3.241-0.626,6.532-0.944,9.78-0.944c27.329,0,49.789,21.361,51.134,48.629c0.183,3.725,2.892,6.842,6.556,7.542
				c0.509,0.098,1.018,0.146,1.522,0.146c3.121-0.001,6.024-1.813,7.354-4.736c8.302-18.238,26.599-30.023,46.612-30.023
				c20.013,0,38.311,11.785,46.611,30.024c1.546,3.394,5.214,5.296,8.875,4.591C315.152,459.682,317.86,456.566,318.045,452.84z"/>
			<path d="M202.105,91.621h183.242c16.344,0,29.642-13.298,29.642-29.642c0-5.188-1.382-10.315-3.996-14.831
				c-2.237-3.863-7.181-5.184-11.047-2.944c-3.863,2.238-5.182,7.183-2.944,11.047c1.207,2.085,1.819,4.347,1.819,6.727
				c0,7.43-6.044,13.474-13.474,13.474H202.106c-7.43,0-13.474-6.044-13.474-13.474s6.043-13.474,13.473-13.474h92.968
				c4.466,0,8.084-3.618,8.084-8.084c0-4.466-3.618-8.084-8.084-8.084h-92.968c-16.345,0-29.642,13.298-29.642,29.642
				S185.76,91.621,202.105,91.621z"/>
			<path d="M503.916,495.832h-5.938c2.073-4.044,3.243-8.625,3.243-13.474v-5.389c0-37.148-27.089-67.368-60.385-67.368
				c-21.181,0-40.9,12.607-51.734,32.601c-1.775-0.176-3.553-0.264-5.322-0.264c-21.306,0-40.617,12.137-51.659,32.465
				c-2.131,3.924-0.678,8.831,3.246,10.963c3.927,2.13,8.831,0.677,10.963-3.245c8.167-15.037,22.167-24.014,37.45-24.014
				c2.738,0,5.513,0.304,8.251,0.904c3.793,0.831,7.635-1.148,9.162-4.715c7.537-17.596,22.726-28.526,39.642-28.526
				c24.382,0,44.216,22.969,44.216,51.2v5.389c0,7.43-6.044,13.474-13.474,13.474H320.135c-4.466,0-8.084,3.619-8.084,8.084
				c0,4.466,3.618,8.084,8.084,8.084h183.781c4.466,0,8.084-3.618,8.084-8.084C512,499.45,508.382,495.832,503.916,495.832z"/>
			<path d="M482.358,215.579h-11.587c-4.466,0-8.084,3.618-8.084,8.084c0,4.466,3.618,8.084,8.084,8.084h11.587
				c7.43,0,13.474,6.044,13.474,13.474s-6.044,13.474-13.474,13.474H353.01c-7.43,0-13.474-6.044-13.474-13.474
				s6.044-13.474,13.474-13.474h88.295c4.466,0,8.084-3.618,8.084-8.084c0-4.466-3.618-8.084-8.084-8.084H353.01
				c-16.344,0-29.642,13.298-29.642,29.642s13.298,29.642,29.642,29.642h129.347c16.344,0,29.642-13.298,29.642-29.642
				S498.702,215.579,482.358,215.579z"/>
			<path d="M247.916,299.116v82.998c0,4.466,3.62,8.084,8.084,8.084c4.466,0,8.084-3.618,8.084-8.084v-82.998
				c0-4.466-3.619-8.084-8.084-8.084C251.535,291.032,247.916,294.65,247.916,299.116z"/>
			<path d="M183.174,284.217l-38.326,64.673c-2.276,3.841-1.008,8.8,2.833,11.075c1.293,0.766,2.713,1.131,4.113,1.131
				c2.763,0,5.453-1.415,6.962-3.965l38.326-64.673c2.276-3.841,1.008-8.8-2.833-11.075
				C190.409,279.108,185.45,280.376,183.174,284.217z"/>
			<path d="M314.917,292.458l38.326,64.674c1.51,2.548,4.2,3.965,6.962,3.965c1.401,0,2.821-0.364,4.113-1.131
				c3.841-2.275,5.109-7.235,2.834-11.075l-38.326-64.674c-2.276-3.841-7.235-5.11-11.075-2.834
				C313.91,283.658,312.641,288.617,314.917,292.458z"/>
		</g>
	</g>
</g>
<g>
</g>
<g>
</g>
<g>
</g>
<g>
</g>
<g>
</g>
<g>
</g>
<g>
</g>
<g>
</g>
<g>
</g>
<g>
</g>
<g>
</g>
<g>
</g>
<g>
</g>
<g>
</g>
<g>
</g>
</svg>
